<?xml version="1.0" standalone="no"?>
<!DOCTYPE svg PUBLIC "-//W3C//DTD SVG 20010904//EN"
 "http://www.w3.org/TR/2001/REC-SVG-20010904/DTD/svg10.dtd">
<svg version="1.0" xmlns="http://www.w3.org/2000/svg"
 width="202.000000pt" height="185.000000pt" viewBox="0 0 202.000000 185.000000"
 preserveAspectRatio="xMidYMid meet">

<g transform="translate(0.000000,185.000000) scale(0.100000,-0.100000)"
fill="#000000" stroke="none">
<path d="M854 1419 c-8 -14 11 -33 25 -25 6 4 11 11 11 16 0 13 -29 20 -36 9z"/>
<path d="M730 1340 c0 -72 2 -81 18 -78 10 2 18 14 20 30 3 21 9 27 30 30 36
4 36 32 0 36 -43 5 -36 32 8 32 57 0 36 24 -24 28 l-52 3 0 -81z"/>
<path d="M910 1340 c0 -64 3 -80 15 -80 12 0 15 16 15 80 0 64 -3 80 -15 80
-12 0 -15 -16 -15 -80z"/>
<path d="M970 1395 c0 -8 -4 -15 -10 -15 -5 0 -10 -7 -10 -15 0 -8 4 -15 9
-15 6 0 11 -19 13 -42 2 -36 7 -44 26 -46 15 -2 22 2 22 12 0 9 -4 16 -10 16
-5 0 -10 14 -10 30 0 17 5 30 10 30 6 0 10 7 10 15 0 8 -4 15 -10 15 -5 0 -10
7 -10 15 0 8 -7 15 -15 15 -8 0 -15 -7 -15 -15z"/>
<path d="M850 1319 c0 -52 2 -60 18 -57 13 2 18 15 20 61 3 52 1 57 -18 57
-18 0 -20 -6 -20 -61z"/>
<path d="M1046 1358 c-9 -12 -16 -29 -16 -38 0 -9 7 -26 16 -38 17 -24 62 -30
82 -10 21 21 13 29 -23 22 -23 -4 -35 -2 -35 5 0 6 16 11 35 11 30 0 35 3 35
23 0 13 -5 28 -12 35 -20 20 -65 14 -82 -10z m57 -15 c-7 -2 -19 -2 -25 0 -7
3 -2 5 12 5 14 0 19 -2 13 -5z"/>
<path d="M1160 1320 c0 -47 3 -60 15 -60 11 0 15 11 15 41 0 32 4 42 20 46 35
9 24 33 -15 33 l-35 0 0 -60z"/>
<path d="M1241 1016 c-26 -15 -50 -51 -51 -78 0 -17 -23 -18 -340 -18 -296 0
-340 -2 -340 -15 0 -13 45 -15 345 -15 233 0 345 -3 345 -10 0 -23 50 -60 80
-60 42 0 67 15 85 50 l16 30 104 0 c87 0 105 3 105 15 0 12 -18 15 -102 15
l-103 1 -18 38 c-25 56 -76 75 -126 47z m88 -42 c57 -73 -26 -169 -89 -102
-27 30 -26 73 5 103 31 32 58 32 84 -1z"/>
<path d="M761 795 c-16 -14 -33 -35 -36 -45 -6 -18 -16 -20 -111 -20 -86 0
-104 -3 -104 -15 0 -12 18 -15 104 -15 l104 0 12 -30 c33 -79 148 -78 180 0
l12 30 334 0 c290 0 334 2 334 15 0 13 -44 15 -334 15 l-334 0 -12 30 c-25 60
-98 77 -149 35z m103 -26 c51 -40 23 -129 -41 -129 -65 0 -95 79 -48 125 30
30 54 31 89 4z"/>
<path d="M1233 591 c-18 -12 -33 -25 -33 -31 0 -6 -67 -10 -187 -10 -306 0
-503 -11 -503 -27 0 -12 54 -13 340 -7 l340 7 0 -22 c0 -12 13 -36 29 -52 54
-54 143 -28 157 46 l6 35 104 0 c86 0 104 3 104 15 0 12 -19 15 -107 15 -94 0
-109 2 -128 20 -33 31 -83 35 -122 11z m95 -31 c42 -39 14 -110 -43 -110 -31
0 -65 33 -65 63 0 30 35 67 64 67 12 0 32 -9 44 -20z"/>
</g>
</svg>
