<?xml version="1.0" standalone="no"?>
<!DOCTYPE svg PUBLIC "-//W3C//DTD SVG 20010904//EN"
 "http://www.w3.org/TR/2001/REC-SVG-20010904/DTD/svg10.dtd">
<svg version="1.0" xmlns="http://www.w3.org/2000/svg"
 width="264.000000pt" height="325.000000pt" viewBox="0 0 264.000000 325.000000"
 preserveAspectRatio="xMidYMid meet">

<g transform="translate(0.000000,325.000000) scale(0.100000,-0.100000)"
fill="#000000" stroke="none">
<path d="M1512 2927 c-16 -19 7 -40 28 -27 13 8 13 11 -1 25 -13 14 -17 14
-27 2z"/>
<path d="M720 2821 l0 -111 66 0 c57 0 65 2 62 18 -2 12 -15 18 -45 20 l-42 3
-3 87 c-3 73 -6 87 -20 90 -16 3 -18 -7 -18 -107z"/>
<path d="M1410 2895 c0 -9 -7 -18 -15 -21 -8 -4 -15 -12 -15 -20 0 -8 7 -14
15 -14 11 0 15 -13 15 -53 0 -58 12 -77 47 -77 28 0 30 16 3 30 -15 8 -20 21
-20 54 0 35 4 45 20 49 11 3 20 10 20 15 0 5 -9 12 -20 15 -11 3 -20 12 -20
21 0 9 -7 16 -15 16 -8 0 -15 -7 -15 -15z"/>
<path d="M894 2849 c-27 -30 -24 -97 6 -121 29 -23 72 -23 101 1 30 24 33 89
5 120 -26 28 -86 28 -112 0z m90 -31 c15 -25 -4 -72 -32 -76 -31 -5 -50 38
-34 74 14 29 48 30 66 2z"/>
<path d="M1070 2843 c-42 -53 -5 -133 61 -133 31 0 74 34 64 50 -9 15 -32 12
-39 -5 -8 -22 -43 -18 -56 6 -26 48 9 94 53 70 36 -19 51 -11 32 17 -24 34
-87 31 -115 -5z"/>
<path d="M1242 2858 c-22 -22 -12 -29 33 -22 36 5 45 3 45 -9 0 -9 -14 -17
-37 -22 -48 -9 -63 -21 -63 -51 0 -31 23 -42 88 -42 l52 0 0 63 c0 44 -5 68
-16 79 -18 19 -85 21 -102 4z m74 -103 c-3 -8 -17 -15 -31 -15 -35 0 -30 32 5
40 27 7 35 -2 26 -25z"/>
<path d="M1510 2789 c0 -71 2 -80 18 -77 14 3 17 16 20 81 3 72 1 77 -18 77
-18 0 -20 -6 -20 -81z"/>
<path d="M1596 2848 c-9 -12 -16 -39 -16 -60 0 -49 28 -78 74 -78 59 0 94 67
65 123 -16 30 -28 37 -71 37 -27 0 -41 -6 -52 -22z m90 -32 c8 -33 2 -57 -17
-69 -29 -18 -49 -1 -49 41 0 45 5 52 36 52 17 0 25 -7 30 -24z"/>
<path d="M1760 2789 c0 -72 2 -79 20 -79 16 0 19 8 22 63 3 59 4 62 28 62 24
0 25 -3 28 -62 3 -55 6 -63 22 -63 18 0 20 7 20 69 0 43 -5 72 -13 79 -6 6
-38 10 -70 10 l-57 -1 0 -78z"/>
<path d="M1164 2556 c-368 -83 -630 -595 -611 -1191 13 -394 111 -665 337
-931 176 -208 227 -244 353 -252 71 -4 82 -2 141 27 64 31 82 49 249 238 150
168 241 360 298 621 27 125 37 436 19 577 -73 588 -423 992 -786 911z m234
-66 c217 -76 404 -356 484 -723 20 -89 22 -132 23 -342 0 -264 -9 -333 -67
-515 -54 -168 -132 -306 -245 -433 -164 -186 -179 -201 -228 -223 -63 -30
-152 -32 -210 -5 -54 24 -136 100 -175 161 -18 27 -36 50 -40 50 -5 0 -38 37
-74 81 -242 304 -331 837 -216 1295 56 223 139 383 269 517 81 83 172 138 261
157 59 12 151 3 218 -20z"/>
<path d="M1170 2169 c-73 -13 -164 -57 -222 -108 -138 -122 -139 -325 -2 -451
96 -88 252 -133 386 -111 239 39 381 226 324 424 -34 118 -172 222 -326 246
-74 12 -84 12 -160 0z m222 -114 c57 -20 132 -84 158 -136 21 -41 26 -112 10
-153 -17 -45 -93 -118 -150 -144 -71 -33 -206 -37 -287 -9 -100 35 -182 134
-183 220 0 105 102 209 234 237 55 12 161 5 218 -15z"/>
</g>
</svg>
