<?xml version="1.0" standalone="no"?>
<!DOCTYPE svg PUBLIC "-//W3C//DTD SVG 20010904//EN"
 "http://www.w3.org/TR/2001/REC-SVG-20010904/DTD/svg10.dtd">
<svg version="1.0" xmlns="http://www.w3.org/2000/svg"
 width="387.000000pt" height="334.000000pt" viewBox="0 0 387.000000 334.000000"
 preserveAspectRatio="xMidYMid meet">

<g transform="translate(0.000000,334.000000) scale(0.100000,-0.100000)"
fill="#000000" stroke="none">
<path d="M1536 2907 c-12 -9 -17 -23 -14 -42 2 -25 10 -32 48 -46 53 -20 64
-45 24 -55 -19 -5 -30 -2 -39 10 -11 15 -45 23 -45 10 0 -21 26 -44 55 -50 43
-8 85 16 85 49 0 33 -11 45 -55 59 -23 8 -40 19 -40 28 0 18 43 26 58 11 13
-13 37 -14 37 -2 0 36 -78 54 -114 28z"/>
<path d="M2220 2825 c0 -78 3 -95 15 -95 11 0 15 12 15 49 0 51 18 78 45 67
11 -4 15 -21 15 -61 0 -42 3 -55 15 -55 12 0 15 14 15 65 0 59 -2 66 -24 76
-17 8 -29 8 -45 0 -19 -11 -21 -9 -21 19 0 20 -5 30 -15 30 -12 0 -15 -17 -15
-95z"/>
<path d="M1720 2873 c-26 -9 -40 -35 -40 -75 0 -50 34 -75 83 -61 18 5 32 15
32 23 0 9 -7 13 -15 11 -37 -10 -65 -5 -68 12 -3 14 4 17 46 17 47 0 49 1 45
25 -8 36 -48 60 -83 48z m48 -40 c2 -9 -7 -13 -27 -13 -31 0 -42 14 -18 23 19
8 40 3 45 -10z"/>
<path d="M1864 2870 c-29 -11 -37 -27 -19 -34 8 -3 17 -1 20 4 9 15 45 12 45
-3 0 -8 -17 -18 -37 -23 -29 -7 -39 -15 -41 -32 -6 -37 14 -51 66 -48 l47 2 3
50 c4 70 -31 105 -84 84z m44 -87 c-4 -23 -48 -31 -48 -9 0 13 14 21 43 25 5
0 7 -7 5 -16z"/>
<path d="M2031 2871 c-7 -5 -22 -6 -32 -4 -17 5 -19 -1 -19 -66 0 -55 3 -71
14 -71 11 0 16 15 18 53 2 43 7 54 26 62 12 5 22 13 22 17 0 12 -16 17 -29 9z"/>
<path d="M2105 2868 c-28 -16 -35 -28 -35 -65 0 -37 29 -73 59 -73 23 0 69 36
58 46 -4 4 -18 1 -32 -6 -30 -16 -55 0 -55 35 0 35 25 51 55 35 34 -18 46 -3
16 21 -27 22 -38 23 -66 7z"/>
<path d="M1442 2223 l-482 -328 0 -692 0 -693 980 0 980 0 0 693 0 692 -493
328 c-271 180 -495 327 -498 327 -3 0 -222 -147 -487 -327z m981 -28 l477
-317 0 -669 0 -669 -960 0 -960 0 0 669 0 670 468 320 c257 176 474 318 482
317 8 -2 230 -146 493 -321z"/>
<path d="M1579 2002 c-187 -62 -304 -251 -272 -439 23 -133 104 -240 223 -297
60 -29 73 -31 170 -31 99 0 110 2 171 32 296 146 298 564 3 710 -65 32 -86 37
-157 40 -60 2 -97 -2 -138 -15z m259 -34 c75 -28 161 -111 198 -190 26 -56 29
-74 29 -158 0 -84 -3 -102 -28 -152 -39 -79 -104 -143 -185 -181 -60 -29 -76
-32 -157 -32 -76 0 -99 5 -145 26 -77 36 -140 97 -181 171 -33 60 -34 67 -34
168 0 93 3 112 27 162 83 177 287 257 476 186z"/>
<path d="M1950 1300 c0 -20 624 -660 633 -651 9 9 -608 661 -625 661 -4 0 -8
-5 -8 -10z"/>
</g>
</svg>
